# xmcd
#
# Track frame offsets: 
#        150
#        15498
#        29216
#        40070
#        54219
#        64836
#        78294
#        91950
#        105312
#        114873
#
# Disc length: 1761 seconds
#
# Revision: 0
# Processed by: cddbd v1.5.2PL0 Copyright (c) Steve Scherf et al.
# Submitted via: ExactAudioCopy v1.3
#
DISCID=6d06df0a
DTITLE=Wilma Burgess - Could I Have This Dance
DYEAR=1982
DGENRE=Country
TTITLE0=Could I Have This Dance
TTITLE1=Back On My Mind
TTITLE2=There Won't Be Anymore
TTITLE3=Everybody's Had The Blues
TTITLE4=I Don't Know Why
TTITLE5=Since I Fell For You
TTITLE6=Satin Sheets
TTITLE7=You Can't Be A Beacon
TTITLE8=When Will I Be Loved
TTITLE9=In No Time At All
EXTD=
EXTT0=
EXTT1=
EXTT2=
EXTT3=
EXTT4=
EXTT5=
EXTT6=
EXTT7=
EXTT8=
EXTT9=
PLAYORDER=
